<svg width="53" height="53" viewBox="0 0 53 53" fill="none" xmlns="http://www.w3.org/2000/svg">
<circle cx="26.5" cy="26.5" r="25.5" fill="#FCFEFD" stroke="#3EB489" stroke-width="2"/>
<path d="M39.3004 9.98877H13.6995C12.5853 9.98877 11.6822 10.8919 11.6822 12.0061V16.9141C11.6822 18.0283 12.5853 18.9315 13.6995 18.9315H22.0145L26.5 23.4171L30.9855 18.9315H39.3005C40.4147 18.9315 41.3179 18.0284 41.3179 16.9142V12.0061C41.3178 10.8919 40.4146 9.98877 39.3004 9.98877Z" fill="#FCFEFD"/>
<path d="M26.4999 24.406C26.2377 24.406 25.9862 24.3018 25.8007 24.1164L21.6047 19.9203H13.6993C12.0417 19.9203 10.6932 18.5717 10.6932 16.9142V12.0062C10.6932 10.3487 12.0418 9 13.6993 9H39.3003C40.958 9 42.3065 10.3487 42.3065 12.0062V16.9142C42.3065 18.5718 40.9579 19.9203 39.3003 19.9203H31.3951L27.1991 24.1164C27.0137 24.3018 26.7622 24.406 26.4999 24.406ZM13.6993 10.9776C13.1322 10.9776 12.6708 11.439 12.6708 12.0062V16.9142C12.6708 17.4813 13.1322 17.9427 13.6993 17.9427H22.0143C22.2765 17.9427 22.528 18.047 22.7135 18.2323L26.4998 22.0187L30.2862 18.2323C30.4717 18.047 30.7232 17.9427 30.9854 17.9427H39.3003C39.8675 17.9427 40.3289 17.4813 40.3289 16.9142V12.0062C40.3289 11.439 39.8675 10.9776 39.3003 10.9776H13.6993Z" fill="#3EB489"/>
<path d="M17.2083 12.0442C18.1238 12.0442 18.8403 12.4688 18.8403 13.6099V15.3282C18.8403 16.4693 18.1238 16.8939 17.2083 16.8939H16.0341C15.7621 16.8939 15.5829 16.7479 15.5829 16.5821V12.356C15.5829 12.1901 15.7621 12.0442 16.0341 12.0442H17.2083V12.0442ZM16.6179 12.9465V15.9915H17.2083C17.5799 15.9915 17.8054 15.7793 17.8054 15.3281V13.6099C17.8054 13.1587 17.5799 12.9465 17.2083 12.9465H16.6179V12.9465Z" fill="#3EB489"/>
<path d="M19.4442 15.3679V13.6099C19.4442 12.4688 20.1542 12.0442 21.0696 12.0442C21.985 12.0442 22.7016 12.4688 22.7016 13.6099V15.3679C22.7016 16.509 21.9851 16.9336 21.0696 16.9336C20.1541 16.9336 19.4442 16.5089 19.4442 15.3679ZM21.6668 13.6099C21.6668 13.1521 21.4413 12.9465 21.0697 12.9465C20.6981 12.9465 20.4792 13.152 20.4792 13.6099V15.3679C20.4792 15.8257 20.6982 16.0314 21.0697 16.0314C21.4412 16.0314 21.6668 15.8257 21.6668 15.3679V13.6099Z" fill="#3EB489"/>
<path d="M25.6606 16.6152L24.4001 14.3197V16.5753C24.4001 16.7876 24.1414 16.8938 23.8827 16.8938C23.6239 16.8938 23.3652 16.7877 23.3652 16.5753V12.3627C23.3652 12.1437 23.6238 12.0442 23.8827 12.0442C24.2541 12.0442 24.3935 12.0774 24.6456 12.5617L25.7204 14.6116V12.356C25.7204 12.137 25.979 12.0442 26.2377 12.0442C26.4964 12.0442 26.7552 12.137 26.7552 12.356V16.5753C26.7552 16.7876 26.4965 16.8938 26.2377 16.8938C25.999 16.8938 25.7867 16.8473 25.6606 16.6152Z" fill="#3EB489"/>
<path d="M27.1402 16.4692C27.1402 16.4493 27.1469 16.4227 27.1535 16.3962L28.3874 12.3493C28.4605 12.1171 28.7589 12.0044 29.0642 12.0044C29.3694 12.0044 29.6679 12.1172 29.7408 12.3493L30.9815 16.3962C30.9881 16.4228 30.9947 16.4493 30.9947 16.4692C30.9947 16.7146 30.6166 16.8938 30.3313 16.8938C30.1654 16.8938 30.0327 16.8407 29.9929 16.7015L29.7674 15.8722H28.3676L28.1421 16.7015C28.1024 16.8408 27.9696 16.8938 27.8037 16.8938C27.5183 16.8938 27.1402 16.7148 27.1402 16.4692ZM29.5485 15.076L29.0643 13.2981L28.5799 15.076H29.5485Z" fill="#3EB489"/>
<path d="M33.8342 12.0442C34.0532 12.0442 34.146 12.283 34.146 12.502C34.146 12.754 34.0332 12.973 33.8342 12.973H32.9186V16.5753C32.9186 16.7876 32.66 16.8938 32.4013 16.8938C32.1426 16.8938 31.8838 16.7877 31.8838 16.5753V12.973H30.9683C30.7692 12.973 30.6565 12.754 30.6565 12.502C30.6565 12.283 30.7493 12.0442 30.9683 12.0442H33.8342Z" fill="#3EB489"/>
<path d="M35.5925 14.0676H36.5876C36.7866 14.0676 36.8994 14.26 36.8994 14.4723C36.8994 14.6515 36.8065 14.8638 36.5876 14.8638H35.5925V15.9915H37.3704C37.5695 15.9915 37.6822 16.2039 37.6822 16.4493C37.6822 16.6615 37.5894 16.8938 37.3704 16.8938H35.0086C34.7831 16.8938 34.5574 16.7877 34.5574 16.5753V12.3627C34.5574 12.1504 34.783 12.0442 35.0086 12.0442H37.3704C37.5894 12.0442 37.6822 12.2765 37.6822 12.4887C37.6822 12.7341 37.5694 12.9465 37.3704 12.9465H35.5925V14.0676Z" fill="#3EB489"/>
<path d="M37.7726 44H15.2272C13.8588 44 12.7457 42.8868 12.7457 41.5185V28.3293C12.7457 27.7832 13.1884 27.3405 13.7345 27.3405C14.2805 27.3405 14.7233 27.7832 14.7233 28.3293V41.5186C14.7233 41.7965 14.9494 42.0225 15.2272 42.0225H37.7728C38.0507 42.0225 38.2767 41.7964 38.2767 41.5186V33.6171C38.2767 33.071 38.7194 32.6283 39.2655 32.6283C39.8115 32.6283 40.2543 33.071 40.2543 33.6171V41.5186C40.2542 42.8868 39.141 44 37.7726 44Z" fill="#3EB489"/>
<path d="M38.7868 29.3181H14.2131C12.235 29.3181 10.6256 27.7087 10.6256 25.7306C10.6256 23.7525 12.235 22.1432 14.2131 22.1432H19.8732C20.4193 22.1432 20.862 22.586 20.862 23.132C20.862 23.6781 20.4193 24.1208 19.8732 24.1208H14.2131C13.3254 24.1208 12.6033 24.843 12.6033 25.7306C12.6033 26.6182 13.3255 27.3404 14.2131 27.3404H38.7869C39.6745 27.3404 40.3967 26.6182 40.3967 25.7306C40.3967 24.843 39.6745 24.1208 38.7869 24.1208H33.1267C32.5807 24.1208 32.1379 23.6781 32.1379 23.132C32.1379 22.586 32.5807 22.1432 33.1267 22.1432H38.7869C40.765 22.1432 42.3743 23.7525 42.3743 25.7306C42.3743 27.7087 40.7649 29.3181 38.7868 29.3181Z" fill="#3EB489"/>
</svg>
