<svg width="37" height="20" viewBox="0 0 37 35" fill="none" xmlns="http://www.w3.org/2000/svg">
<path d="M35.2682 14.3681L35.2683 14.3682C35.3915 14.4686 35.4603 14.5481 35.4976 14.6004C35.4978 14.6007 35.4981 14.601 35.4983 14.6013C35.437 14.6181 35.3346 14.636 35.1774 14.636H32.9875H31.9875V15.636V32.7811C31.9875 33.4548 31.4399 34 30.7745 34H23.9694C23.2712 34 22.701 33.4109 22.701 32.7811V25.7502C22.701 24.6507 21.8654 23.5989 20.6499 23.5989H16.0025C14.8508 23.5989 13.8407 24.5867 13.8407 25.7502V32.7811C13.8407 33.4996 13.3144 34 12.683 34H5.76726C5.10175 34 4.55424 33.4549 4.55424 32.7811V15.636V14.636H3.55424H1.36434C1.20715 14.636 1.10466 14.6181 1.04339 14.6013C1.04364 14.601 1.04389 14.6006 1.04414 14.6003C1.08144 14.548 1.15028 14.4685 1.27347 14.3681L1.27364 14.3679L17.2663 1.33054C17.2663 1.33051 17.2664 1.33048 17.2664 1.33044C17.5124 1.13 17.8638 1 18.267 1C18.6721 1 19.0264 1.13091 19.2753 1.33362C19.2753 1.33366 19.2754 1.33369 19.2754 1.33373L25.3847 6.31282L27.0164 7.64272V5.53765V3.90699C27.0164 3.78817 27.1148 3.68982 27.2336 3.68982H30.1105C30.2294 3.68982 30.3277 3.78817 30.3277 3.90699V9.86656V10.3416L30.6959 10.6417L35.2682 14.3681Z" fill="white" stroke="#3EB489" stroke-width="2"/>
</svg>
