<svg width="37" height="20" viewBox="0 0 37 35" fill="none" xmlns="http://www.w3.org/2000/svg">
<path d="M35.8999 13.593L31.3277 9.86655V3.90699C31.3277 3.23589 30.7816 2.68982 30.1105 2.68982H27.2336C26.5625 2.68982 26.0164 3.23589 26.0164 3.90699V5.53766L19.9071 0.558457C19.4651 0.198398 18.8826 0 18.267 0C17.6538 0 17.0741 0.197181 16.6345 0.555359L0.641785 13.5928C-0.0848625 14.1849 -0.0412659 14.7007 0.0493575 14.9554C0.13976 15.2096 0.430883 15.636 1.36434 15.636H3.55424V32.7811C3.55424 34.0047 4.547 35 5.76726 35H12.683C13.8929 35 14.8407 34.0253 14.8407 32.7811V25.7502C14.8407 25.1476 15.3945 24.5989 16.0025 24.5989H20.6499C21.2295 24.5989 21.701 25.1154 21.701 25.7502V32.7811C21.701 33.9839 22.7398 35 23.9694 35H30.7745C31.9947 35 32.9875 34.0046 32.9875 32.7811V15.636H35.1774C36.1108 15.636 36.4018 15.2096 36.4924 14.9554C36.583 14.7007 36.6266 14.1849 35.8999 13.593Z" fill="#3EB489"/>
</svg>
