<svg width="34" height="20" viewBox="0 0 34 35" fill="none" xmlns="http://www.w3.org/2000/svg">
<path d="M16.5541 0C25.6919 0 33.1081 7.41622 33.1081 16.5541C33.1081 25.6919 25.6919 33.1081 16.5541 33.1081C7.41622 33.1081 0 25.6919 0 16.5541C0 7.41622 7.41622 0 16.5541 0ZM6.6597 22.2089C9.08983 25.8343 12.7383 28.1419 16.8189 28.1419C20.8978 28.1419 24.548 25.8359 26.9765 22.2089C24.2215 19.6341 20.5898 18.2042 16.8189 18.2095C13.0474 18.2038 9.41514 19.6337 6.6597 22.2089V22.2089ZM16.5541 14.8986C17.8712 14.8986 19.1344 14.3754 20.0657 13.4441C20.997 12.5127 21.5203 11.2496 21.5203 9.93243C21.5203 8.61531 20.997 7.35213 20.0657 6.42079C19.1344 5.48944 17.8712 4.96622 16.5541 4.96622C15.2369 4.96622 13.9738 5.48944 13.0424 6.42079C12.1111 7.35213 11.5878 8.61531 11.5878 9.93243C11.5878 11.2496 12.1111 12.5127 13.0424 13.4441C13.9738 14.3754 15.2369 14.8986 16.5541 14.8986V14.8986Z" fill="#3EB489"/>
</svg>
